<svg width="45" height="71" viewBox="0 0 45 71" fill="none" xmlns="http://www.w3.org/2000/svg">
<path d="M0.184 66.392V5.432C0.184 3.96 0.824 2.84 2.104 2.07199C3.384 1.24 4.92 0.823999 6.712 0.823999H40.024C41.496 0.823999 42.616 1.464 43.384 2.744C44.152 4.024 44.536 5.528 44.536 7.256C44.536 9.112 44.12 10.68 43.288 11.96C42.52 13.24 41.432 13.88 40.024 13.88H15.16V30.104H29.656C31.064 30.104 32.152 30.68 32.92 31.832C33.752 32.984 34.168 34.36 34.168 35.96C34.168 37.432 33.784 38.744 33.016 39.896C32.248 41.048 31.128 41.624 29.656 41.624H15.16V66.392C15.16 67.864 14.424 69.016 12.952 69.848C11.48 70.616 9.72 71 7.672 71C5.624 71 3.864 70.616 2.392 69.848C0.92 69.016 0.184 67.864 0.184 66.392Z" fill="#EEC076"/>
</svg>
